<svg id="tapify_Logo" data-name="tapify Logo" xmlns="http://www.w3.org/2000/svg" width="125.48" height="47.4" viewBox="0 0 125.48 47.4">
  <path id="Path_23095" data-name="Path 23095" d="M60.8,24.166c-.153,0-.252.1-.333.333s-.072.252-.117.378c-.845,2.634-2.265,5.277-3.865,5.277-1.151,0-1.8-1.744-1.8-3.6,0-3.811.449-10.418.449-11.344s-.378-1.348-1.007-1.348H50.719c-.521,0-.9.485-.9,1.249v.342L49.7,15.5a6.2,6.2,0,0,0-4.953-2.31c-4.495,0-7.91,4.935-8,11.686v.279A16.657,16.657,0,0,0,38,31.86c1.214,2.76,3.281,4.441,5.978,4.441a6.508,6.508,0,0,0,6.1-4.387l.153.045V32.1c0,2.7,2.041,4.2,4.764,4.2a7.074,7.074,0,0,0,5.394-2.7,16.181,16.181,0,0,0,3.281-6.8,2.2,2.2,0,0,0,.081-.476C63.717,25.667,61.146,24.166,60.8,24.166ZM45.127,30.152c-1.708,0-2.8-1.888-2.8-4.629,0-3.6,1.87-6.292,4.324-6.292a4.773,4.773,0,0,1,3.128,1.69C49.784,24.211,48.256,30.152,45.127,30.152Z" transform="translate(-3.678 -1.333)"/>
  <path id="Path_23096" data-name="Path 23096" d="M85.654,24.163c-.144,0-.252.189-.333.476a2.485,2.485,0,0,1-.072.243c-.7,2.283-2.175,5.636-5.7,6.427l-.072-.243c1.339-1.16,2.562-4.252,2.562-7.623,0-4.98-2.526-10.284-7.191-10.284-3.2,0-4.989,1.735-6.562,4.441l-.144-.045c.081-.494.261-1.933.261-2.328,0-.818-.3-1.393-1.043-1.393H64.134c-.9,0-1.124.575-1.124,1.69V46.555c0,1.115.378,1.6,1.088,1.6h3.317c.629,0,.962-.539.962-1.4V32.711c0-6.526,1.6-13.484,5.25-13.484,1.8,0,2.8,1.978,2.8,4.593,0,3.083-1.3,6.292-3.6,6.292-1.043,0-1.672-.728-2.014-.728s-1.555,3.6-1.555,4.3c0,.53,1.223,1.3,2.382,1.735A14.113,14.113,0,0,0,76,36.19c4.27,0,7.632-1.357,9.888-3.892A12.324,12.324,0,0,0,88.539,26.9a4.415,4.415,0,0,0,.117-.674C88.6,25.709,86.067,24.163,85.654,24.163Z" transform="translate(-6.333 -1.33)"/>
  <path id="Path_23097" data-name="Path 23097" d="M99.211,23.017c-.225,0-.3.189-.369.431C98.168,25.867,96.46,29,94.708,29c-1.2,0-1.681-1.546-1.681-3.479,0-1.151.261-8.351.261-11.488,0-.9-.369-1.348-1.043-1.348h-3.6c-.6,0-.9.53-.9,1.3v12.98a13.484,13.484,0,0,0,.584,4.216,5.1,5.1,0,0,0,5.115,3.892A7.039,7.039,0,0,0,98.843,32.3a16.738,16.738,0,0,0,3.2-6.733,2.185,2.185,0,0,0,.072-.476C102.115,24.519,99.58,23.017,99.211,23.017ZM90.564,1.83c-1.708,0-2.9,1.447-2.9,3.479,0,2.265,1.124,3.713,2.76,3.713,1.861,0,2.939-1.546,2.939-3.766S92.137,1.83,90.564,1.83Z" transform="translate(-8.825 -0.185)"/>
  <path id="Path_23098" data-name="Path 23098" d="M118.753,22.832c-.153,0-.261.1-.333.387l-.117.351c-.683,1.969-1.8,3.263-3.011,3.263-1.645,0-2.832-3.182-3.506-4.629a.782.782,0,0,0-.746-.431c-1.151,0-3.946,2.274-3.946,3.811a8.495,8.495,0,0,0,1.906,4.2,27.65,27.65,0,0,1,.512,5.393c0,3.668-.746,6.131-2.193,6.131S105.3,39.13,105.3,35.013V20.468c5.492-2.49,9.609-7.335,9.609-12.935,0-4.584-2.571-7.533-6.22-7.533C103,0,100.1,7.191,100.1,15.731v19.56c0,7.767,2.337,12.108,6.778,12.108,4.98,0,7.191-5.456,7.191-11.443a26.274,26.274,0,0,0-.261-3.47l.081-.1a3.056,3.056,0,0,0,1.142.144,5.528,5.528,0,0,0,3.856-1.717,10,10,0,0,0,2.7-5.232,3.65,3.65,0,0,0,.108-.674C121.656,24.334,119.121,22.832,118.753,22.832ZM108.694,5.6c.9,0,1.456.674,1.456,1.888,0,2.553-2.05,5.447-4.845,7.191C105.565,9.412,106.725,5.6,108.694,5.6Z" transform="translate(-10.082)"/>
  <path id="Path_23099" data-name="Path 23099" d="M137.525,29.452V15.213c0-.773-.369-1.3-1.007-1.3h-3.6c-.6,0-.9.485-.9,1.393v1.546c0,6.292-1.744,13.376-4.351,13.376-1.6,0-1.978-1.843-1.978-4.108,0-4.2.261-7.91.261-10.787,0-.9-.333-1.393-1.007-1.393h-3.533c-.521,0-1.007.431-1.007,1.348V28.194a12.693,12.693,0,0,0,.6,4.027c.9,2.562,2.7,4.081,5.016,4.081a6.718,6.718,0,0,0,6.337-4.674l.153.045v3.6c0,5.69-2.382,7.38-4.584,7.38a5.393,5.393,0,0,1-3.4-1.519c-.342-.288-.485-.378-.674-.378-.665,0-2.418,3.326-2.418,4.333,0,1.312,2.7,3.722,6.292,3.722,6.292,0,9.645-4.872,9.834-13.133h.045Z" transform="translate(-12.135 -1.406)"/>
  <path id="Path_23100" data-name="Path 23100" d="M35.662,23.522c-.153,0-.27.1-.342.333s-.054.2-.09.306c-.674,2.292-2.292,5.394-4.818,5.394-2.238,0-2.984-1.8-2.984-5.268V8.267c0-.9-.333-1.447-1.043-1.447H23.113c-.674,0-1.043.53-1.043,1.447V26.956c0,5.115,2.9,8.63,7.191,8.63a8.3,8.3,0,0,0,7.191-4.441,16.315,16.315,0,0,0,1.978-4.917,3.75,3.75,0,0,0,.108-.683C38.565,24.96,35.994,23.522,35.662,23.522Z" transform="translate(-2.195 -0.689)"/>
  <path id="Path_23101" data-name="Path 23101" d="M0,5.22S11.745,18.7,34.155,12.411l-.638,4.45S15.538,23.153-.04,12.591Z" transform="translate(0.04 -0.528)"/>
</svg>
